# xmcd
# 
# Track frame offsets:
#     150
#     43072
#     84765
#     122537
#     159330
# 
# Disc length: 3253
# 
# Revision: 20
# Processed by: cddbd v1.5.2PL0 Copyright (c) Steve Scherf et al.
# Submitted via: fre:ac v1.0.17
# 
DISCID=2d0cb305
DTITLE=The Orb - The Orb's Adventures Beyond The Ultraworld [CD 2)
DYEAR=2006
DGENRE=Ambient
TTITLE0=Ultraworld Probe Six - Perpetual Dawn
TTITLE1=Ultraworld Probe Seven - Into The Fourth Dimension
TTITLE2=Ultraworld Probe Eight - Outlands
TTITLE3=Ultraworld Nine - Star 6 and 7 8 9
TTITLE4=Ultraworld Ten - A Huge Ever Growing Pulsating Brain That Rules From The Centre Of The Ultraworld: Live Mix Mk10
EXTD=
EXTT0=
EXTT1=
EXTT2=
EXTT3=
EXTT4=
PLAYORDER=
